<?xml version="1.0" encoding="UTF-8"?>
<svg id="Layer_1" xmlns="http://www.w3.org/2000/svg" viewBox="0 0 24 24">
	<defs>
		<style>
			.cls-1 {
				fill: #fff;
			}

			.cls-2 {
				fill: #231f20;
			}
		</style>
	</defs>
	<circle class="cls-2" cx="12" cy="12" r="12" />
	<g>
		<path class="cls-1"
			d="m8.86,14.11c-.04.98,1.21-.17,1.6-.68h.14s-1.71,2.28-1.71,2.28l-1.79,2.28.04-10.57s.09-1.18-.76-1.18l.1-.25h3.95s-.1.25-.1.25c0-.02-.42.03-.42.03-.3.03-.6.09-.86.31-.23.22-.19.83-.19,1.24v6.27Zm8.77-8.11l-.08.2c-.96,0-2.6,1.79-3.95,3.41h-.16c1.06-1.57,1.97-3.41.2-3.41l.08-.2h3.91Z" />
		<path class="cls-1"
			d="m17.62,16.65c0,.55-.46,1.04-1.04,1.04s-1.04-.49-1.04-1.04c0-.58.47-1.05,1.04-1.05s1.04.47,1.04,1.05Z" />
	</g>
</svg>
